<?xml version="1.0" encoding="utf-8"?>
<!-- Generator: Adobe Illustrator 21.1.0, SVG Export Plug-In . SVG Version: 6.00 Build 0)  -->
<svg version="1.1" id="Layer_1" xmlns="http://www.w3.org/2000/svg" xmlns:xlink="http://www.w3.org/1999/xlink" x="0px" y="0px"
	 viewBox="0 0 53 58" enable-background="new 0 0 53 58" xml:space="preserve">
<g>
	<path fill="#FFFFFF" d="M28.4,17.1c-3.3,0-5.9,2.6-6,5.9c-3.2,0.1-5.8,2.7-5.8,6c0,3.1,2.4,5.7,5.5,6h0.2h0.1h10.9
		c0.2,0,0.5-0.1,0.7-0.3s0.3-0.4,0.3-0.7V23.1C34.4,19.8,31.8,17.1,28.4,17.1z M25.3,25.7c0.2-0.2,0.3-0.6,0.2-0.9l0,0L25.3,24
		c-0.1-0.3-0.2-0.7-0.2-1c0-1.8,1.5-3.4,3.4-3.4c1.8,0,3.4,1.5,3.4,3.4v9.1h-9.1h-0.1c-1.7-0.1-3.1-1.5-3.1-3.4
		c0-1.8,1.5-3.4,3.4-3.4c0.3,0,0.7,0,1,0.1l0.8,0.2C24.8,25.9,25.1,25.8,25.3,25.7z"/>
	<circle fill="none" cx="26.5" cy="27" r="18"/>
	<g>
		<path fill="#FFFFFF" d="M26.6,3.5c-0.9,0-1.6,0.8-1.6,1.6V11c0,0.9,0.8,1.6,1.6,1.6s1.6-0.8,1.6-1.6V5.2
			C28.2,4.2,27.5,3.5,26.6,3.5z"/>
		<path fill="#FFFFFF" d="M15.1,8.3c-0.3-0.4-0.7-0.6-1.1-0.7c-0.5-0.1-0.9,0-1.2,0.3c-0.8,0.6-0.9,1.5-0.4,2.3l3.5,4.7
			c0.3,0.4,0.7,0.6,1.1,0.7c0.1,0,0.2,0,0.3,0c0.4,0,0.7-0.1,1-0.3c0.4-0.3,0.6-0.7,0.7-1.1c0.1-0.5,0-0.9-0.3-1.2L15.1,8.3z"/>
		<path fill="#FFFFFF" d="M5.3,21.7l5.6,1.8c0.2,0.1,0.4,0.1,0.5,0.1c0.3,0,0.5-0.1,0.8-0.2c0.4-0.2,0.7-0.6,0.8-1s0.1-0.9-0.1-1.2
			c-0.2-0.4-0.6-0.7-1-0.8l-5.6-1.8c-0.9-0.3-1.8,0.2-2,1.1l0,0c-0.1,0.4-0.1,0.9,0.1,1.2C4.5,21.3,4.8,21.6,5.3,21.7z"/>
		<path fill="#FFFFFF" d="M12.9,31.3c-0.3-0.9-1.2-1.3-2-1.1L5.3,32c-0.4,0.1-0.8,0.4-1,0.8S4,33.7,4.1,34.1c0.1,0.4,0.4,0.8,0.8,1
			c0.2,0.1,0.5,0.2,0.8,0.2c0.2,0,0.4,0,0.5-0.1l5.6-1.8C12.7,33.1,13.1,32.2,12.9,31.3z"/>
		<path fill="#FFFFFF" d="M18,38.5c-0.8-0.6-1.7-0.4-2.3,0.4l-3.5,4.7c-0.3,0.4-0.4,0.8-0.3,1.2c0.1,0.5,0.3,0.8,0.7,1.1
			c0.3,0.2,0.6,0.3,1,0.3c0.1,0,0.2,0,0.3,0c0.5-0.1,0.8-0.3,1.1-0.7l3.5-4.7C18.9,40.1,18.7,39.1,18,38.5z"/>
		<path fill="#FFFFFF" d="M26.4,41.3c-0.9,0-1.6,0.8-1.6,1.6v5.9c0,0.9,0.8,1.6,1.6,1.6c0.9,0,1.6-0.8,1.6-1.6v-5.9
			C28,42.1,27.3,41.3,26.4,41.3z"/>
		<path fill="#FFFFFF" d="M37.2,39c-0.6-0.8-1.5-0.9-2.3-0.4c-0.8,0.6-0.9,1.5-0.4,2.3l3.5,4.7c0.3,0.5,0.9,0.7,1.3,0.7
			c0.3,0,0.7-0.1,1-0.3l0,0c0.8-0.6,0.9-1.5,0.4-2.3L37.2,39z"/>
		<path fill="#FFFFFF" d="M47.7,32.3l-5.6-1.8c-0.9-0.3-1.8,0.2-2,1.1c-0.3,0.9,0.2,1.8,1.1,2l5.6,1.8c0.2,0.1,0.4,0.1,0.5,0.1
			c0.3,0,0.5-0.1,0.8-0.2c0.4-0.2,0.7-0.6,0.8-1C49.1,33.5,48.6,32.6,47.7,32.3z"/>
		<path fill="#FFFFFF" d="M40.1,22.7c0.1,0.4,0.4,0.8,0.8,1c0.2,0.1,0.5,0.2,0.8,0.2c0.2,0,0.4,0,0.5-0.1l5.6-1.8
			c0.9-0.3,1.3-1.2,1.1-2c-0.1-0.4-0.4-0.8-0.8-1c-0.4-0.2-0.9-0.2-1.2-0.1l-5.6,1.8C40.3,20.9,39.9,21.8,40.1,22.7z"/>
		<path fill="#FFFFFF" d="M35,15.5c0.3,0.2,0.7,0.3,1,0.3c0.5,0,1-0.2,1.3-0.7l3.5-4.7c0.6-0.8,0.4-1.7-0.4-2.3l0,0
			c-0.8-0.6-1.7-0.4-2.3,0.4l-3.5,4.7c-0.3,0.4-0.4,0.8-0.3,1.2C34.5,14.8,34.7,15.2,35,15.5z"/>
	</g>
</g>
</svg>
