<?xml version="1.0" encoding="utf-8"?>
<!-- Generator: Adobe Illustrator 21.1.0, SVG Export Plug-In . SVG Version: 6.00 Build 0)  -->
<svg version="1.1" id="Layer_1" xmlns="http://www.w3.org/2000/svg" xmlns:xlink="http://www.w3.org/1999/xlink" x="0px" y="0px"
	 viewBox="0 0 53 58" enable-background="new 0 0 53 58" xml:space="preserve">
<g>
	<circle fill="#FFFFFF" cx="25.6" cy="11.3" r="4.9"/>
	<path fill="#FFFFFF" d="M41.7,27.3c0.1,0,0.3,0,0.4,0c1,0,1.8,0.2,2.7,0.5c-0.3-4.7-2.2-9.1-5.6-12.5c-1.7-1.7-3.6-3.1-5.9-4v0.1
		c0,1.1-0.2,2-0.6,3C37.7,16.8,41.1,21.7,41.7,27.3z"/>
	<circle fill="#FFFFFF" cx="42.1" cy="34.9" r="4.9"/>
	<path fill="#FFFFFF" d="M36.8,40.4c-3,2.9-6.9,4.4-11.1,4.4s-8.2-1.6-11.1-4.5c-0.8,0.8-1.6,1.3-2.7,1.6c0.1,0.1,0.2,0.2,0.3,0.3
		c3.6,3.6,8.4,5.6,13.5,5.6s9.9-2,13.5-5.6c0.1-0.1,0.2-0.2,0.3-0.3C38.5,41.7,37.5,41.1,36.8,40.4z"/>
	<circle fill="#FFFFFF" cx="9.2" cy="34.9" r="4.9"/>
	<path fill="#FFFFFF" d="M12.2,15.3c-3.4,3.4-5.3,7.8-5.6,12.4c0.9-0.3,1.7-0.5,2.6-0.5c0.2,0,0.3,0,0.5,0
		c0.6-5.6,3.9-10.5,8.9-12.9c-0.4-1-0.6-1.9-0.6-3v-0.1C15.8,12.2,13.9,13.6,12.2,15.3z"/>
</g>
</svg>
