<?xml version="1.0" encoding="utf-8"?>
<!-- Generator: Adobe Illustrator 21.1.0, SVG Export Plug-In . SVG Version: 6.00 Build 0)  -->
<svg version="1.1" id="Layer_1" xmlns="http://www.w3.org/2000/svg" xmlns:xlink="http://www.w3.org/1999/xlink" x="0px" y="0px"
	 viewBox="0 0 53 58" style="enable-background:new 0 0 53 58;" xml:space="preserve">
<style type="text/css">
	.st0{fill:#F37A27;stroke:#F37A27;stroke-width:0.3;stroke-miterlimit:10;}
</style>
<g>
	<path class="st0" d="M28.2,43H7.9V4.8h37v21.5c0,0.6,0.5,1,1,1c0.6,0,1-0.5,1-1V3.8c0-0.6-0.5-1-1-1h-39c-0.6,0-1,0.5-1,1V44
		c0,0.6,0.5,1,1,1h21.3c0.6,0,1-0.5,1-1S28.8,43,28.2,43z"/>
	<path class="st0" d="M41.1,28.7c-5.7,0-10.4,4.7-10.4,10.4s4.7,10.4,10.4,10.4s10.4-4.7,10.4-10.4S46.8,28.7,41.1,28.7z M41.1,47.5
		c-4.6,0-8.4-3.8-8.4-8.4s3.8-8.4,8.4-8.4s8.4,3.8,8.4,8.4C49.5,43.8,45.7,47.5,41.1,47.5z"/>
	<path class="st0" d="M41.7,22.1c0-0.6-0.5-1-1-1H12.1c-0.6,0-1,0.5-1,1s0.5,1,1,1h28.6C41.3,23.2,41.7,22.7,41.7,22.1z"/>
	<path class="st0" d="M12.1,26.1c-0.6,0-1,0.5-1,1s0.5,1,1,1h21.5c0.6,0,1-0.5,1-1s-0.5-1-1-1H12.1z"/>
	<path class="st0" d="M28.9,31H12.1c-0.6,0-1,0.5-1,1c0,0.6,0.5,1,1,1h16.8c0.6,0,1-0.5,1-1S29.5,31,28.9,31z"/>
	<path class="st0" d="M46.7,38.1h-4.6v-4.6c0-0.6-0.5-1-1-1s-1,0.5-1,1v5.6c0,0.6,0.5,1,1,1h5.6c0.6,0,1-0.5,1-1
		S47.2,38.1,46.7,38.1z M47.6,39.2L47.6,39.2c0-0.4-0.2-0.7-0.5-0.8C47.3,38.5,47.6,38.8,47.6,39.2z M42,33.6v4.7l0,0V33.6
		c0-0.2-0.1-0.5-0.3-0.6C41.9,33.1,42,33.3,42,33.6z"/>
	<path class="st0" d="M12.1,17.5h28.6c0.6,0,1-0.5,1-1v-7c0-0.6-0.5-1-1-1H12.1c-0.6,0-1,0.5-1,1v7C11.1,17.1,11.5,17.5,12.1,17.5z
		 M39.7,10.6v4.9H13.1v-4.9H39.7z"/>
</g>
</svg>
