<?xml version="1.0" encoding="utf-8"?>
<!-- Generator: Adobe Illustrator 21.1.0, SVG Export Plug-In . SVG Version: 6.00 Build 0)  -->
<svg version="1.1" id="Layer_1" xmlns="http://www.w3.org/2000/svg" xmlns:xlink="http://www.w3.org/1999/xlink" x="0px" y="0px"
	 viewBox="0 0 53 58" enable-background="new 0 0 53 58" xml:space="preserve">
<g>
	<g>
		<path fill="#FFFFFF" d="M19.7,24.3l0.6-1.1c0.7,0.4,1.3,0.7,2.2,0.7c1.2,0,2-0.7,2-1.9v-0.5c-0.5,0.7-1.2,1.2-2.2,1.2
			c-1.4,0-2.9-1.1-2.9-3l0,0c0-1.8,1.3-3,2.9-3c1.1,0,1.7,0.5,2.2,1.1v-1H26v5c0,1.1-0.3,1.8-0.8,2.4c-0.6,0.6-1.4,0.9-2.6,0.9
			S20.5,24.8,19.7,24.3z M24.4,19.7L24.4,19.7c0-1.1-0.9-1.7-1.8-1.7c-1,0-1.8,0.7-1.8,1.7l0,0c0,1.1,0.8,1.7,1.8,1.7
			C23.6,21.5,24.4,20.7,24.4,19.7z"/>
		<path fill="#FFFFFF" d="M27.5,14.5H29v1.3h-1.5V14.5z M27.5,16.9h1.4v6.3h-1.4V16.9z"/>
		<path fill="#FFFFFF" d="M31,18.1h-0.8v-1.2H31v-0.5c0-0.7,0.2-1.2,0.5-1.5s0.8-0.5,1.4-0.5c0.5,0,0.9,0.1,1.2,0.2v1.2
			c-0.3-0.1-0.6-0.2-0.9-0.2c-0.6,0-0.9,0.3-0.9,1V17H34v1.2h-1.6v5H31V18.1L31,18.1z"/>
		<path fill="#FFFFFF" d="M35.8,21.5v-3.3H35V17h0.8v-1.7h1.4V17H39v1.2h-1.7v3.1c0,0.6,0.3,0.8,0.8,0.8c0.3,0,0.6-0.1,0.9-0.2V23
			c-0.4,0.2-0.8,0.3-1.2,0.3C36.6,23.3,35.8,22.8,35.8,21.5z"/>
	</g>
	<g>
		<path fill="#FFFFFF" d="M23.6,27.9L23.6,27.9c0-1.2,0.9-2,2-2c0.8,0,1.2,0.3,1.5,0.7l-0.6,0.6c-0.3-0.3-0.6-0.5-1-0.5
			c-0.7,0-1.2,0.6-1.2,1.2l0,0c0,0.7,0.5,1.2,1.2,1.2c0.4,0,0.7-0.2,1-0.5l0.6,0.5c-0.4,0.4-0.9,0.7-1.5,0.7
			C24.5,29.9,23.6,29,23.6,27.9z"/>
		<path fill="#FFFFFF" d="M30.4,29.8v-0.5c-0.3,0.3-0.7,0.6-1.2,0.6c-0.8,0-1.3-0.4-1.3-1.2l0,0c0-0.9,0.7-1.2,1.5-1.2
			c0.5,0,0.8,0.1,1.1,0.2v-0.1c0-0.6-0.3-0.9-1-0.9c-0.4,0-0.8,0.1-1.1,0.2l-0.2-0.7c0.4-0.2,0.9-0.3,1.4-0.3c1.2,0,1.7,0.6,1.7,1.6
			v2.3H30.4L30.4,29.8z M30.4,28.2c-0.2-0.1-0.6-0.2-0.9-0.2c-0.6,0-0.9,0.2-0.9,0.6l0,0c0,0.4,0.3,0.6,0.8,0.6
			c0.6,0,1.1-0.3,1.1-0.8L30.4,28.2L30.4,28.2z"/>
		<path fill="#FFFFFF" d="M32.3,26h0.9v0.9c0.2-0.6,0.7-1,1.3-1v1h-0.1c-0.8,0-1.3,0.5-1.3,1.5v1.4h-0.9L32.3,26L32.3,26z"/>
		<path fill="#FFFFFF" d="M35,27.9L35,27.9c0-1.2,0.9-2,1.8-2c0.7,0,1.1,0.3,1.3,0.7v-2H39v5.3h-0.9v-0.7c-0.3,0.4-0.7,0.7-1.3,0.7
			C35.8,29.9,35,29.1,35,27.9z M38,27.9L38,27.9c0-0.8-0.5-1.2-1.2-1.2c-0.6,0-1.2,0.5-1.2,1.2l0,0c0,0.8,0.5,1.2,1.2,1.2
			C37.6,29.1,38,28.7,38,27.9z"/>
	</g>
	<g>
		<path fill="#FFFFFF" d="M42.2,10H9.7c-1.9,0-3.6,1.6-3.6,3.6v17.3c0,2,1.6,3.6,3.6,3.6h32.5c1.9,0,3.6-1.6,3.6-3.6V13.6
			C45.7,11.6,44.2,10,42.2,10z M43.6,30.2c0,1.2-1,2.1-2.1,2.1H15V12.1h26.5c1.2,0,2.1,1,2.1,2.1V30.2z"/>
	</g>
</g>
</svg>
